<svg width="660" height="478" viewBox="0 0 660 478" fill="none" xmlns="http://www.w3.org/2000/svg">
<g clip-path="url(#clip0_1_3)">
<path d="M659.95 262.93C659.95 263.39 659.57 263.77 659.11 264.01H0V262.01H659.11C659.58 262.09 659.95 262.47 659.95 262.93Z" fill="#CACBF6"/>
<path d="M216.66 58.93C230.417 58.93 241.57 47.7774 241.57 34.02C241.57 20.2626 230.417 9.11 216.66 9.11C202.903 9.11 191.75 20.2626 191.75 34.02C191.75 47.7774 202.903 58.93 216.66 58.93Z" fill="#FFB6B6"/>
<path d="M230.01 64.19L197.22 73.56L192.54 84.1L182 134.45V214.08C182 214.08 169.12 242.19 176.14 266.78C183.65 293.07 210.1 262.04 230.01 265.58C249.92 269.12 281.54 272.63 281.54 272.63L262.8 187.14L258.12 82.91L230.01 64.19Z" fill="#CACBF6"/>
<path d="M223.67 42.18L218.61 39.65C218.61 39.65 217.34 28.25 214.81 25.72C212.28 23.19 212.28 21.92 212.28 21.92L216.08 16.86C216.08 16.86 197.09 26.99 193.29 20.66C189.49 14.33 194.56 11.8 194.56 11.8L188.23 6.74C188.23 6.74 195.83 11.8 197.09 8.01C198.35 4.22 205.95 1.63 205.95 1.63C205.95 1.63 222.54 5.38 221.21 1.63C219.88 -2.12 224.94 1.67 226.21 2.94C227.48 4.21 238.87 16.87 240.14 15.6C241.41 14.33 247.74 18.13 246.47 19.4C245.2 20.67 245.2 21.93 246.47 23.2C247.74 24.47 255.33 38.39 249 43.46C242.67 48.53 233.81 54.86 235.07 59.92C236.33 64.98 235.07 43.44 223.67 42.18Z" fill="#071D51"/>
<path d="M100.87 104.9C94.48 99.39 92.14 91.62 95.65 87.55C99.16 83.48 107.18 84.65 113.58 90.17C116.16 92.34 118.19 95.09 119.49 98.21L146.29 121.91L134.9 134.25L109.69 109.58C106.42 108.74 103.4 107.14 100.87 104.9Z" fill="#FFB6B6"/>
<path d="M192.67 84.5L210.32 82.9L225.8 156.73C228.75 170.8 219.53 184.53 205.39 187.13L192.67 189.47L111.58 118.08L123.43 98.33L183.23 135.84L192.67 84.5Z" fill="#CACBF6"/>
<path d="M153.26 412.81C153.26 412.81 139.26 438.81 140.26 437.81C141.26 436.81 158.26 442.81 158.26 442.81L168.26 416.81L153.26 412.81Z" fill="#FFB6B6"/>
<path d="M132.6 231.01C132.6 230.82 125.43 259.46 126.16 258.25C126.89 257.04 144.84 258.66 144.84 258.66L148.13 230.01L132.6 231.01Z" fill="#FFB6B6"/>
<path d="M257.26 226C225.62 230.44 197.04 226.57 173.76 208.31C173.76 208.31 156.76 265.31 187.76 271.31C218.76 277.31 253.26 267 257.26 257C261.26 247 257.26 226 257.26 226Z" fill="#071D51"/>
<path d="M198.26 244L163.76 325.31L147.76 419.31L168.76 424.31L206.32 337.81L257.26 255L198.26 244Z" fill="#071D51"/>
<path d="M193.76 220.82C193.76 220.82 185.76 158.82 170.76 154.82C163.45 152.87 156.61 153.06 151.53 153.76C146.4 154.47 142.31 158.39 141.41 163.49L127.78 241.01H147.06L153.26 220.01L169.76 248.82L193.76 220.82Z" fill="#071D51"/>
<path d="M144.76 250.81L125.7 248.81L122.76 259.81C122.76 259.81 91.76 287.81 107.76 289.81C123.76 291.81 138.76 280.81 138.76 280.81L160.77 268.18C160.77 268.18 152.26 245.49 146.26 245.49C140.26 245.49 144.76 250.81 144.76 250.81Z" fill="#071D51"/>
<path d="M154.76 438.31L135.7 436.31L132.76 447.31C132.76 447.31 101.76 475.31 117.76 477.31C133.76 479.31 148.76 468.31 148.76 468.31L170.77 455.68C170.77 455.68 169.26 431.99 163.26 431.99C157.26 431.99 154.76 438.31 154.76 438.31Z" fill="#071D51"/>
<path d="M251.26 286.93C248.96 294.81 243.03 300.01 238.02 298.55C233.01 297.09 230.8 289.51 233.1 281.63C233.98 278.47 235.6 275.56 237.82 273.15L247.98 239.88L263.49 244.98L251.83 277.24C252.42 280.47 252.23 283.79 251.26 286.93Z" fill="#FFB6B6"/>
<path d="M262 83.07L253.91 80.79C246.28 95.96 243 112.95 244.43 129.88L248.42 177.1L235.25 260.1L261.07 266.78L281.41 162.62L262 83.07Z" fill="#CACBF6"/>
<path d="M104.54 212.84C104.19 211.76 101.5 212.23 101.24 211.26C100.98 210.29 103.56 209.48 105.53 206.76C105.89 206.27 108.13 203.18 107.27 201.87C105.64 199.4 94.28 205.55 91.56 202.1C90.96 201.34 90.72 200.04 88.93 197.63C88.22 196.67 87.77 196.2 87.22 196.22C86.45 196.24 86.17 197.2 84.96 198.95C83.14 201.57 82.49 201.24 81.29 203.39C80.4 204.98 80.3 206 79.65 206.06C78.74 206.14 78.37 204.16 77.26 204.08C76.13 204 75 205.96 74.44 207.49C73.39 210.37 74.04 212.56 74.18 214.75C74.34 217.13 73.97 220.61 71.38 225.09L46.99 263.95C52.23 256.03 67.1 234.42 73.09 226.5C74.82 224.21 76.68 221.92 79.54 221.48C82.29 221.06 85.65 222.43 90.32 222.35C90.87 222.34 92.39 222.3 92.76 221.49C93.07 220.82 92.31 220.24 92.58 219.62C92.95 218.78 94.62 219.14 96.89 218.58C98.49 218.19 99.58 217.54 100.51 216.98C100.81 216.82 105.01 214.28 104.54 212.84Z" fill="#FCD9A7"/>
<path d="M40.65 221.91C40.02 221.77 39.48 223.23 38.93 223.07C38.38 222.92 38.73 221.42 37.96 219.66C37.82 219.34 36.95 217.35 36.06 217.4C34.38 217.49 34.12 224.84 31.64 225.18C31.1 225.26 30.39 225 28.69 225.18C28.01 225.25 27.65 225.34 27.5 225.61C27.29 225.99 27.68 226.41 28.19 227.51C28.95 229.16 28.6 229.39 29.31 230.59C29.84 231.49 30.31 231.83 30.15 232.16C29.93 232.63 28.85 232.24 28.49 232.76C28.13 233.29 28.76 234.41 29.35 235.13C30.46 236.48 31.72 236.79 32.84 237.35C34.05 237.96 35.66 239.15 37.11 241.71L49.15 264.89C46.77 260.03 40.46 246.5 38.3 241.27C37.68 239.76 37.09 238.19 37.7 236.66C38.29 235.19 39.93 233.94 41.24 231.62C41.39 231.35 41.81 230.59 41.52 230.18C41.28 229.84 40.78 230.04 40.55 229.73C40.24 229.31 40.9 228.59 41.28 227.32C41.55 226.42 41.54 225.7 41.54 225.08C41.54 224.89 41.5 222.09 40.65 221.91Z" fill="#FCD9A7"/>
<path d="M52.66 227.57L53.04 224.08L53.27 223.86C54.34 222.85 55.02 221.77 55.27 220.66C55.31 220.48 55.34 220.31 55.37 220.13C55.5 219.41 55.65 218.52 56.34 217.59C56.73 217.07 57.75 215.91 58.8 216.31C59.08 216.42 59.28 216.6 59.41 216.8C59.44 216.77 59.48 216.73 59.51 216.7C59.97 216.26 60.28 216.1 60.59 215.94C60.83 215.82 61.07 215.7 61.48 215.37C61.66 215.23 61.81 215.1 61.93 214.99C62.3 214.66 62.77 214.27 63.42 214.43C64.11 214.62 64.34 215.27 64.5 215.71C64.78 216.48 64.87 217.02 64.92 217.37C64.94 217.5 64.96 217.64 64.98 217.69C65.13 218.07 67.02 218.17 67.73 218.21C69.33 218.3 70.71 218.37 71.04 219.46C71.28 220.24 70.78 221.1 69.52 222.06C69.13 222.36 68.73 222.57 68.39 222.72C68.6 222.92 68.77 223.19 68.78 223.56C68.8 224.43 67.91 225.1 66.12 225.55C65.68 225.66 65.08 225.81 64.3 225.78C63.93 225.76 63.61 225.71 63.33 225.65C63.29 225.81 63.21 225.97 63.08 226.12C62.68 226.58 62.04 226.69 61.17 226.43C60.21 226.16 59.45 225.8 58.78 225.48C58.19 225.2 57.69 224.96 57.26 224.9C56.47 224.79 55.74 225.28 54.85 225.93L52.66 227.57Z" fill="#FCD9A7"/>
<path d="M58.96 207.67L55.49 208.19L55.22 208.02C53.97 207.24 52.76 206.86 51.62 206.9C51.44 206.91 51.26 206.92 51.08 206.94C50.35 207 49.45 207.08 48.38 206.64C47.78 206.4 46.39 205.7 46.52 204.58C46.55 204.28 46.68 204.05 46.84 203.87C46.8 203.85 46.76 203.82 46.71 203.8C46.17 203.47 45.93 203.2 45.7 202.95C45.52 202.75 45.34 202.55 44.92 202.23C44.73 202.09 44.57 201.98 44.44 201.89C44.03 201.62 43.53 201.26 43.52 200.59C43.53 199.88 44.1 199.48 44.48 199.22C45.16 198.75 45.65 198.54 45.98 198.39C46.1 198.34 46.23 198.28 46.28 198.25C46.61 198.01 46.22 196.16 46.08 195.46C45.76 193.89 45.48 192.54 46.45 191.94C47.15 191.51 48.1 191.78 49.35 192.75C49.74 193.05 50.04 193.38 50.28 193.67C50.42 193.42 50.64 193.19 50.99 193.08C51.83 192.84 52.7 193.53 53.59 195.15C53.81 195.55 54.11 196.09 54.27 196.86C54.35 197.22 54.37 197.55 54.39 197.83C54.55 197.83 54.73 197.86 54.91 197.95C55.45 198.22 55.73 198.81 55.7 199.72C55.68 200.72 55.52 201.55 55.38 202.28C55.26 202.92 55.16 203.47 55.2 203.89C55.29 204.68 55.95 205.27 56.8 205.96L58.96 207.67Z" fill="#FCD9A7"/>
<path d="M59.43 197.24L59.81 193.75L60.04 193.53C61.11 192.52 61.79 191.44 62.04 190.33C62.08 190.15 62.11 189.98 62.14 189.8C62.27 189.08 62.42 188.19 63.11 187.26C63.5 186.74 64.52 185.58 65.57 185.98C65.85 186.09 66.05 186.27 66.18 186.47C66.21 186.44 66.25 186.4 66.28 186.37C66.74 185.93 67.05 185.77 67.36 185.61C67.6 185.49 67.84 185.37 68.25 185.04C68.43 184.9 68.58 184.77 68.7 184.66C69.07 184.33 69.54 183.94 70.19 184.1C70.88 184.29 71.11 184.94 71.27 185.38C71.55 186.15 71.64 186.69 71.69 187.04C71.71 187.17 71.73 187.31 71.75 187.36C71.9 187.74 73.79 187.84 74.5 187.88C76.1 187.97 77.48 188.04 77.81 189.13C78.05 189.91 77.55 190.77 76.29 191.73C75.9 192.03 75.5 192.24 75.16 192.39C75.37 192.59 75.54 192.86 75.55 193.23C75.57 194.1 74.68 194.77 72.89 195.22C72.45 195.33 71.85 195.48 71.07 195.45C70.7 195.43 70.38 195.38 70.1 195.32C70.06 195.48 69.98 195.64 69.85 195.79C69.45 196.25 68.81 196.36 67.94 196.1C66.98 195.83 66.22 195.47 65.55 195.15C64.96 194.87 64.46 194.63 64.03 194.57C63.24 194.46 62.51 194.95 61.62 195.6L59.43 197.24Z" fill="#FCD9A7"/>
<path d="M48.16 264.16L47 263.55L48 262.69V263.55L46.69 263.46C46.69 263.38 46.69 263.19 46.68 262.9C46.65 261.29 46.55 256.4 47.23 248.89C47.71 243.64 48.5 238.32 49.59 233.06C50.68 227.79 51.82 223.88 52.73 220.73C53.42 218.35 54.11 216.1 54.79 213.91C56.6 208.05 58.31 202.51 59.36 196.19C59.6 194.78 60.09 191.84 59.08 188.38C58.5 186.37 57.5 184.48 56.11 182.76L57.45 181.67C58.98 183.57 60.09 185.66 60.74 187.9C61.86 191.74 61.32 194.94 61.06 196.48C59.98 202.91 58.26 208.5 56.43 214.42C55.76 216.61 55.06 218.85 54.38 221.22C53.48 224.34 52.35 228.22 51.27 233.42C50.19 238.62 49.41 243.87 48.94 249.05C48.27 256.47 48.37 261.29 48.4 262.87C48.43 263.71 48.43 263.89 48.16 264.16Z" fill="#FCD9A7"/>
<path d="M52.43 184.75C52.36 184.73 52.29 184.72 52.22 184.7C50.8 184.3 49.67 183.15 48.84 181.27C48.45 180.39 48.36 179.46 48.18 177.6C48.15 177.31 48.03 175.87 48.18 173.95C48.28 172.7 48.42 172.19 48.76 171.8C49.14 171.36 49.65 171.11 50.19 170.98C50.2 170.81 50.26 170.65 50.37 170.5C50.81 169.86 51.56 170.12 51.96 170.26C52.16 170.33 52.42 170.43 52.7 170.47C53.15 170.55 53.41 170.47 53.82 170.35C54.21 170.24 54.69 170.1 55.35 170.11C56.66 170.13 57.63 170.72 57.95 170.91C59.64 171.92 60.22 173.54 60.89 175.41C61.02 175.79 61.47 177.14 61.57 178.89C61.64 180.15 61.48 180.67 61.29 181.04C60.9 181.8 60.31 182.15 58.84 182.89C57.3 183.67 56.53 184.05 55.9 184.25C54.44 184.7 53.51 184.99 52.43 184.75Z" fill="#FCD9A7"/>
<path d="M446.65 38.54C446.65 38.54 456.19 44.13 453.06 49.66C449.93 55.19 445.57 62.72 448.53 65.1C451.49 67.47 456.37 77.93 456.37 77.93C456.37 77.93 477.22 75.02 475.26 91.21C473.3 107.4 463.51 109.61 471.9 116.73C480.29 123.85 463.18 132.37 463.18 132.37C463.18 132.37 451.36 128.69 448.67 117.36C445.98 106.03 451.07 126.02 449.36 127.45C447.65 128.88 441.01 138.33 436.31 125.77C431.61 113.21 436.26 108.34 430.06 100.93C423.86 93.52 419.63 81.53 419.81 79.44C419.99 77.35 412.71 58.22 423.92 50.77C435.13 43.32 446.65 38.54 446.65 38.54Z" fill="#071D51"/>
<path d="M540.58 214.23C546.12 218.81 552.97 219.67 555.89 216.15C558.81 212.63 556.68 206.06 551.14 201.47C548.95 199.61 546.35 198.3 543.55 197.65L519.84 178.53L511.1 189.85L535.4 207.5C536.57 210.12 538.34 212.43 540.58 214.23Z" fill="#FFB6B6"/>
<path d="M469.53 109.96C469.53 109.96 450.93 97.52 444.83 103.62C438.73 109.72 440.19 124.96 440.19 124.96L488.98 181.82L527.66 206.41L538.03 190.17L505.51 161.15L469.53 109.96Z" fill="#EB7950"/>
<path d="M442.27 83.02L449.02 107.01H411.97L424.17 77.45L442.27 83.02Z" fill="#FFB6B6"/>
<path opacity="0.1" d="M442.27 83.02L449.02 107.01H411.97L424.17 77.45L442.27 83.02Z" fill="black"/>
<path d="M361.46 260.15C360.98 267.32 364.29 273.38 368.86 273.68C373.43 273.98 377.51 268.42 377.99 261.24C378.22 258.38 377.76 255.5 376.65 252.85L378.29 222.44L364 221.98L363.9 252.01C362.45 254.49 361.61 257.28 361.46 260.15Z" fill="#FFB6B6"/>
<path d="M404.49 141.53C404.49 141.53 403.7 119.16 395.19 117.79C386.68 116.42 375.17 126.51 375.17 126.51L357.59 199.34L360.27 245.1L379.51 244.01L384.03 200.66L404.49 141.53Z" fill="#EB7950"/>
<path d="M487.02 408.81C487.02 408.81 501.02 434.81 500.02 433.81C499.02 432.81 482.02 438.81 482.02 438.81L472.02 412.81L487.02 408.81Z" fill="#FFB6B6"/>
<path d="M507.68 227.01C507.68 226.82 514.85 255.46 514.12 254.25C513.39 253.04 495.44 254.66 495.44 254.66L492.15 226.01L507.68 227.01Z" fill="#FFB6B6"/>
<path d="M452.02 99.01H417.07L379.02 125.01L368.02 216.01L374.02 234.01L385.02 255.01C385.02 255.01 374.02 209.01 401.02 227.01C428.02 245.01 430.02 248.01 430.02 248.01L466.02 230.01L479.52 155.51L469.52 114.51L452.02 99.01Z" fill="#EB7950"/>
<path d="M383.02 222C414.66 226.44 443.24 222.57 466.52 204.31C466.52 204.31 483.52 261.31 452.52 267.31C421.52 273.31 387.02 263 383.02 253C379.02 243 383.02 222 383.02 222Z" fill="#071D51"/>
<path d="M442.02 240L476.52 321.31L492.52 415.31L471.52 420.31L433.95 333.81L383.02 251L442.02 240Z" fill="#071D51"/>
<path d="M446.52 216.82C446.52 216.82 454.52 154.82 469.52 150.82C476.83 148.87 483.67 149.06 488.76 149.76C493.89 150.47 497.98 154.39 498.87 159.49L512.5 237.01H493.22L487.02 216.01L470.52 244.82L446.52 216.82Z" fill="#071D51"/>
<path d="M495.52 246.81L514.58 244.81L517.52 255.81C517.52 255.81 548.52 283.81 532.52 285.81C516.52 287.81 501.52 276.81 501.52 276.81L479.51 264.18C479.51 264.18 488.02 241.49 494.02 241.49C500.02 241.49 495.52 246.81 495.52 246.81Z" fill="#071D51"/>
<path d="M485.52 434.31L504.58 432.31L507.52 443.31C507.52 443.31 538.52 471.31 522.52 473.31C506.52 475.31 491.52 464.31 491.52 464.31L469.51 451.68C469.51 451.68 471.02 427.99 477.02 427.99C483.02 427.99 485.52 434.31 485.52 434.31Z" fill="#071D51"/>
<path d="M433.46 88.22C445.781 88.22 455.77 78.2315 455.77 65.91C455.77 53.5885 445.781 43.6 433.46 43.6C421.139 43.6 411.15 53.5885 411.15 65.91C411.15 78.2315 421.139 88.22 433.46 88.22Z" fill="#FFB6B6"/>
<path d="M442.02 41C442.02 41 445.74 51.41 439.79 53.64C433.84 55.87 425.66 58.85 426.4 62.56C427.14 66.27 424.17 77.43 424.17 77.43C424.17 77.43 442.02 88.59 430.12 99.74C418.22 110.9 409.3 106.3 411.16 117.15C413.02 128 394.43 123.54 394.43 123.54C394.43 123.54 387.74 113.13 392.94 102.72C398.14 92.31 389.22 110.9 386.99 110.9C384.76 110.9 373.6 113.87 378.07 101.23C382.54 88.59 389.23 87.84 389.23 78.18C389.23 68.52 393.69 56.61 395.18 55.13C396.67 53.65 403.36 34.31 416.75 35.79C430.14 37.27 442.02 41 442.02 41Z" fill="#071D51"/>
<path d="M247.02 408.81C247.02 408.81 233.02 434.81 234.02 433.81C235.02 432.81 252.02 438.81 252.02 438.81L262.02 412.81L247.02 408.81Z" fill="#A0616A"/>
<path d="M351.02 222C319.38 226.44 290.8 222.57 267.52 204.31C267.52 204.31 250.52 261.31 281.52 267.31C312.52 273.31 347.02 263 351.02 253C355.02 243 351.02 222 351.02 222Z" fill="#071D51"/>
<path d="M292.02 240L257.52 321.31L241.52 415.31L262.52 420.31L300.08 333.81L351.02 251L292.02 240Z" fill="#071D51"/>
<path d="M248.52 434.31L229.46 432.31L226.52 443.31C226.52 443.31 195.52 471.31 211.52 473.31C227.52 475.31 242.52 464.31 242.52 464.31L264.53 451.68C264.53 451.68 263.02 427.99 257.02 427.99C251.02 427.99 248.52 434.31 248.52 434.31Z" fill="#071D51"/>
<path d="M278.63 395.13C278.63 395.13 273.33 424.18 273.98 422.92C274.63 421.66 292.64 422.12 292.64 422.12L294.13 394.3L278.63 395.13Z" fill="#A0616A"/>
<path d="M269.35 220.67L261.62 308.66L275.4 403.01L296.92 401.29L305.96 307.42L328.87 212.93L269.35 220.67Z" fill="#071D51"/>
<path d="M287.92 418.93L269.17 422.91L269.77 434.28C269.77 434.28 248.92 470.48 264.76 467.44C280.6 464.4 291.47 449.32 291.47 449.32L308.51 430.52C308.51 430.52 299.77 408.45 294.06 410.31C288.35 412.17 287.92 418.93 287.92 418.93Z" fill="#071D51"/>
<path d="M287.39 38.54C287.39 38.54 277.85 44.13 280.98 49.66C284.11 55.19 288.47 62.72 285.51 65.1C282.55 67.47 277.67 77.93 277.67 77.93C277.67 77.93 256.82 75.02 258.78 91.21C260.74 107.4 270.53 109.61 262.14 116.73C253.75 123.85 270.86 132.37 270.86 132.37C270.86 132.37 282.68 128.69 285.37 117.36C288.06 106.03 282.97 126.02 284.68 127.45C286.39 128.88 293.03 138.33 297.73 125.77C302.43 113.21 297.78 108.34 303.98 100.93C310.19 93.52 314.41 81.53 314.23 79.44C314.05 77.35 321.33 58.22 310.12 50.77C298.91 43.32 287.39 38.54 287.39 38.54Z" fill="#071D51"/>
<path d="M291.77 83.02L285.02 107.01H322.06L309.86 77.45L291.77 83.02Z" fill="#A0616A"/>
<path opacity="0.1" d="M291.77 83.02L285.02 107.01H322.06L309.86 77.45L291.77 83.02Z" fill="black"/>
<path d="M372.54 260.15C373.02 267.32 369.71 273.38 365.14 273.68C360.57 273.98 356.49 268.42 356.01 261.24C355.78 258.38 356.24 255.5 357.35 252.85L355.71 222.44L370 221.97L370.1 252C371.55 254.49 372.39 257.28 372.54 260.15Z" fill="#A0616A"/>
<path d="M329.54 141.53C329.54 141.53 330.33 119.16 338.84 117.79C347.35 116.42 358.86 126.51 358.86 126.51L376.44 199.34L373.76 245.1L354.52 244.01L350 200.66L329.54 141.53Z" fill="#6E6DBF"/>
<path d="M282.02 99.01H316.97L355.02 125.01L366.02 216.01L360.02 234.01L349.02 255.01C349.02 255.01 360.02 209.01 333.02 227.01C332.75 227.19 332.48 227.37 332.22 227.55C314.84 239.16 291.91 237.97 275.82 224.63L263.02 214.02L270.02 179.02L264.52 114.52L282.02 99.01Z" fill="#6E6DBF"/>
<path d="M194.55 212.93C188.94 217.43 182.08 218.18 179.22 214.61C176.36 211.04 178.58 204.5 184.19 200.01C186.41 198.18 189.03 196.91 191.83 196.3L215.82 177.54L224.38 188.99L199.82 206.27C198.63 208.88 196.82 211.16 194.55 212.93Z" fill="#A0616A"/>
<path d="M267.18 109.75C267.18 109.75 285.97 97.59 291.97 103.79C297.97 109.99 296.28 125.2 296.28 125.2L246.64 181.31L207.59 205.31L197.46 188.91L230.42 160.39L267.18 109.75Z" fill="#6E6DBF"/>
<path d="M300.57 88.22C312.891 88.22 322.88 78.2315 322.88 65.91C322.88 53.5885 312.891 43.6 300.57 43.6C288.249 43.6 278.26 53.5885 278.26 65.91C278.26 78.2315 288.249 88.22 300.57 88.22Z" fill="#A0616A"/>
<path d="M289.46 50.96C289.46 50.96 286.17 40 291.65 40C297.13 40 319.04 41.1 321.23 43.29C323.42 45.48 349.35 67.47 334.02 85C318.69 102.53 334.02 111 334.02 111C334.02 111 345.34 137.51 334.39 139.7C323.43 141.89 278.49 129.36 289.47 109.02C301.37 86.95 306.92 52.11 289.46 50.96Z" fill="#071D51"/>
<path d="M654.54 213.84C654.19 212.76 651.5 213.23 651.24 212.26C650.98 211.29 653.56 210.48 655.53 207.76C655.89 207.27 658.13 204.18 657.27 202.87C655.64 200.4 644.28 206.55 641.56 203.1C640.96 202.34 640.72 201.04 638.93 198.63C638.22 197.67 637.77 197.2 637.22 197.22C636.45 197.24 636.17 198.2 634.96 199.95C633.14 202.57 632.49 202.24 631.29 204.39C630.4 205.98 630.3 207 629.65 207.06C628.74 207.14 628.37 205.16 627.26 205.08C626.13 205 625 206.96 624.44 208.49C623.39 211.37 624.04 213.56 624.18 215.75C624.34 218.13 623.97 221.61 621.38 226.09L596.99 264.95C602.23 257.03 617.1 235.42 623.09 227.5C624.82 225.21 626.68 222.92 629.54 222.48C632.29 222.06 635.65 223.43 640.32 223.35C640.87 223.34 642.39 223.3 642.76 222.49C643.07 221.82 642.31 221.24 642.58 220.62C642.95 219.78 644.62 220.14 646.89 219.58C648.49 219.19 649.58 218.54 650.51 217.98C650.81 217.82 655.01 215.28 654.54 213.84Z" fill="#FCD9A7"/>
<path d="M590.65 222.91C590.02 222.77 589.48 224.23 588.93 224.07C588.38 223.92 588.73 222.42 587.96 220.66C587.82 220.34 586.95 218.35 586.06 218.4C584.38 218.49 584.12 225.84 581.64 226.18C581.1 226.26 580.39 226 578.69 226.18C578.01 226.25 577.65 226.34 577.5 226.61C577.29 226.99 577.68 227.41 578.19 228.51C578.95 230.16 578.6 230.39 579.31 231.59C579.84 232.49 580.31 232.83 580.15 233.16C579.93 233.63 578.85 233.24 578.49 233.76C578.13 234.29 578.76 235.41 579.35 236.13C580.46 237.48 581.72 237.79 582.84 238.35C584.05 238.96 585.66 240.15 587.11 242.71L599.15 265.89C596.77 261.03 590.46 247.5 588.3 242.27C587.68 240.76 587.09 239.19 587.7 237.66C588.29 236.19 589.93 234.94 591.24 232.62C591.39 232.35 591.81 231.59 591.52 231.18C591.28 230.84 590.78 231.04 590.55 230.73C590.24 230.31 590.9 229.59 591.28 228.32C591.55 227.42 591.54 226.7 591.54 226.08C591.54 225.89 591.5 223.09 590.65 222.91Z" fill="#FCD9A7"/>
<path d="M602.66 228.57L603.04 225.08L603.27 224.86C604.34 223.85 605.02 222.77 605.27 221.66C605.31 221.48 605.34 221.31 605.37 221.13C605.5 220.41 605.65 219.52 606.34 218.59C606.73 218.07 607.75 216.91 608.8 217.31C609.08 217.42 609.28 217.6 609.41 217.8C609.44 217.77 609.48 217.73 609.51 217.7C609.97 217.26 610.28 217.1 610.59 216.94C610.83 216.82 611.07 216.7 611.48 216.37C611.66 216.23 611.81 216.1 611.93 215.99C612.3 215.66 612.77 215.27 613.42 215.43C614.11 215.62 614.34 216.27 614.5 216.71C614.78 217.48 614.87 218.02 614.92 218.37C614.94 218.5 614.96 218.64 614.98 218.69C615.13 219.07 617.02 219.17 617.73 219.21C619.33 219.3 620.71 219.37 621.04 220.46C621.28 221.24 620.78 222.1 619.52 223.06C619.13 223.36 618.73 223.57 618.39 223.72C618.6 223.92 618.77 224.19 618.78 224.56C618.8 225.43 617.91 226.1 616.12 226.55C615.68 226.66 615.08 226.81 614.3 226.78C613.93 226.76 613.61 226.71 613.33 226.65C613.29 226.81 613.21 226.97 613.08 227.12C612.68 227.58 612.04 227.69 611.17 227.43C610.21 227.16 609.45 226.8 608.78 226.48C608.19 226.2 607.69 225.96 607.26 225.9C606.47 225.79 605.74 226.28 604.85 226.93L602.66 228.57Z" fill="#FCD9A7"/>
<path d="M608.96 208.67L605.49 209.19L605.22 209.02C603.97 208.24 602.76 207.86 601.62 207.9C601.44 207.91 601.26 207.92 601.08 207.94C600.35 208 599.45 208.08 598.38 207.64C597.78 207.4 596.39 206.7 596.52 205.58C596.55 205.28 596.68 205.05 596.84 204.87C596.8 204.85 596.76 204.82 596.71 204.8C596.17 204.47 595.93 204.2 595.7 203.95C595.52 203.75 595.34 203.55 594.92 203.23C594.73 203.09 594.57 202.98 594.44 202.89C594.03 202.62 593.53 202.26 593.52 201.59C593.53 200.88 594.1 200.48 594.48 200.22C595.16 199.75 595.65 199.54 595.98 199.39C596.1 199.34 596.23 199.28 596.28 199.25C596.61 199.01 596.22 197.16 596.08 196.46C595.76 194.89 595.48 193.54 596.45 192.94C597.15 192.51 598.1 192.78 599.35 193.75C599.74 194.05 600.04 194.38 600.28 194.67C600.42 194.42 600.64 194.19 600.99 194.08C601.83 193.84 602.7 194.53 603.59 196.15C603.81 196.55 604.11 197.09 604.27 197.86C604.35 198.22 604.37 198.55 604.39 198.83C604.55 198.83 604.73 198.86 604.91 198.95C605.45 199.22 605.73 199.81 605.7 200.72C605.68 201.72 605.52 202.55 605.38 203.28C605.26 203.92 605.16 204.47 605.2 204.89C605.29 205.68 605.95 206.27 606.8 206.96L608.96 208.67Z" fill="#FCD9A7"/>
<path d="M609.43 198.24L609.81 194.75L610.04 194.53C611.11 193.52 611.79 192.44 612.04 191.33C612.08 191.15 612.11 190.98 612.14 190.8C612.27 190.08 612.42 189.19 613.11 188.26C613.5 187.74 614.52 186.58 615.57 186.98C615.85 187.09 616.05 187.27 616.18 187.47C616.21 187.44 616.25 187.4 616.28 187.37C616.74 186.93 617.05 186.77 617.36 186.61C617.6 186.49 617.84 186.37 618.25 186.04C618.43 185.9 618.58 185.77 618.7 185.66C619.07 185.33 619.54 184.94 620.19 185.1C620.88 185.29 621.11 185.94 621.27 186.38C621.55 187.15 621.64 187.69 621.69 188.04C621.71 188.17 621.73 188.31 621.75 188.36C621.9 188.74 623.79 188.84 624.5 188.88C626.1 188.97 627.48 189.04 627.81 190.13C628.05 190.91 627.55 191.77 626.29 192.73C625.9 193.03 625.5 193.24 625.16 193.39C625.37 193.59 625.54 193.86 625.55 194.23C625.57 195.1 624.68 195.77 622.89 196.22C622.45 196.33 621.85 196.48 621.07 196.45C620.7 196.43 620.38 196.38 620.1 196.32C620.06 196.48 619.98 196.64 619.85 196.79C619.45 197.25 618.81 197.36 617.94 197.1C616.98 196.83 616.22 196.47 615.55 196.15C614.96 195.87 614.46 195.63 614.03 195.57C613.24 195.46 612.51 195.95 611.62 196.6L609.43 198.24Z" fill="#FCD9A7"/>
<path d="M598.16 265.16L597 264.55L598 263.69V264.55L596.69 264.46C596.69 264.38 596.69 264.19 596.68 263.9C596.65 262.29 596.55 257.4 597.23 249.89C597.71 244.64 598.5 239.32 599.59 234.06C600.68 228.79 601.82 224.88 602.73 221.73C603.42 219.35 604.11 217.1 604.79 214.91C606.6 209.05 608.31 203.51 609.36 197.19C609.6 195.78 610.09 192.84 609.08 189.38C608.5 187.37 607.5 185.48 606.11 183.76L607.45 182.67C608.98 184.57 610.09 186.66 610.74 188.9C611.86 192.74 611.32 195.94 611.06 197.48C609.98 203.91 608.26 209.5 606.43 215.42C605.76 217.61 605.06 219.85 604.38 222.22C603.48 225.34 602.35 229.22 601.27 234.42C600.19 239.62 599.41 244.87 598.94 250.05C598.27 257.47 598.37 262.29 598.4 263.87C598.43 264.71 598.43 264.89 598.16 265.16Z" fill="#FCD9A7"/>
<path d="M602.43 185.75C602.36 185.73 602.29 185.72 602.22 185.7C600.8 185.3 599.67 184.15 598.84 182.27C598.45 181.39 598.36 180.46 598.18 178.6C598.15 178.31 598.03 176.87 598.18 174.95C598.28 173.7 598.42 173.19 598.76 172.8C599.14 172.36 599.65 172.11 600.19 171.98C600.2 171.81 600.26 171.65 600.37 171.5C600.81 170.86 601.56 171.12 601.96 171.26C602.16 171.33 602.42 171.43 602.7 171.47C603.15 171.55 603.41 171.47 603.82 171.35C604.21 171.24 604.69 171.1 605.35 171.11C606.66 171.13 607.63 171.72 607.95 171.91C609.64 172.92 610.22 174.54 610.89 176.41C611.02 176.79 611.47 178.14 611.57 179.89C611.64 181.15 611.48 181.67 611.29 182.04C610.9 182.8 610.31 183.15 608.84 183.89C607.3 184.67 606.53 185.05 605.9 185.25C604.44 185.7 603.51 185.99 602.43 185.75Z" fill="#FCD9A7"/>
<path d="M167.07 204.69L165.94 169.1C165.92 168.52 166.15 167.96 166.56 167.56C166.97 167.16 167.54 166.95 168.12 166.98L196.36 168.67C196.93 168.7 197.47 168.98 197.83 169.42C198.19 169.86 198.36 170.44 198.28 171.01L193.5 206.39C193.36 207.46 192.4 208.24 191.32 208.17L169 206.68C168.77 206.66 168.56 206.61 168.36 206.53C167.62 206.24 167.1 205.53 167.07 204.69Z" fill="#6E6DBF"/>
<path d="M165.98 165.77C166.38 165.73 166.9 165.68 167.54 165.62C167.37 165.3 167.3 164.93 167.37 164.55L167.87 161.88C168 161.19 168.56 160.66 169.26 160.56C173.42 160 187.72 158.5 196.73 162.58C197.29 162.84 197.66 163.4 197.67 164.02L197.75 166.86C197.76 167.21 197.66 167.54 197.48 167.81C198.23 168.01 198.98 168.22 199.72 168.46C200.18 168.61 200.52 169.01 200.57 169.5L200.71 170.71C200.8 171.48 200.17 172.14 199.4 172.09L165.63 169.81C164.86 169.76 164.33 169.02 164.51 168.28L164.9 166.71C165.03 166.2 165.46 165.82 165.98 165.77Z" fill="#EB7950"/>
<path d="M82.07 103.69L80.94 68.1C80.92 67.52 81.15 66.96 81.56 66.56C81.97 66.16 82.54 65.95 83.12 65.98L111.36 67.67C111.93 67.7 112.47 67.98 112.83 68.42C113.19 68.86 113.36 69.44 113.28 70.01L108.5 105.39C108.36 106.46 107.4 107.24 106.32 107.17L84 105.68C83.77 105.66 83.56 105.61 83.36 105.53C82.62 105.24 82.1 104.53 82.07 103.69Z" fill="#6E6DBF"/>
<path d="M80.98 64.77C81.38 64.73 81.9 64.68 82.54 64.62C82.37 64.3 82.3 63.93 82.37 63.55L82.87 60.88C83 60.19 83.56 59.66 84.26 59.56C88.42 59 102.72 57.5 111.73 61.58C112.29 61.84 112.66 62.4 112.67 63.02L112.75 65.86C112.76 66.21 112.66 66.54 112.48 66.81C113.23 67.01 113.98 67.22 114.72 67.46C115.18 67.61 115.52 68.01 115.57 68.5L115.71 69.71C115.8 70.48 115.17 71.14 114.4 71.09L80.63 68.81C79.86 68.76 79.33 68.02 79.51 67.28L79.9 65.71C80.03 65.2 80.46 64.82 80.98 64.77Z" fill="#EB7950"/>
<path d="M525.07 213.69L523.94 178.1C523.92 177.52 524.15 176.96 524.56 176.56C524.97 176.16 525.54 175.95 526.12 175.98L554.36 177.67C554.93 177.7 555.47 177.98 555.83 178.42C556.19 178.86 556.36 179.44 556.28 180.01L551.5 215.39C551.36 216.46 550.4 217.24 549.32 217.17L527 215.68C526.77 215.66 526.56 215.61 526.36 215.53C525.62 215.24 525.1 214.53 525.07 213.69Z" fill="#6E6DBF"/>
<path d="M523.98 174.77C524.38 174.73 524.9 174.68 525.54 174.62C525.37 174.3 525.3 173.93 525.37 173.55L525.87 170.88C526 170.19 526.56 169.66 527.26 169.56C531.42 169 545.72 167.5 554.73 171.58C555.29 171.84 555.66 172.4 555.67 173.02L555.75 175.86C555.76 176.21 555.66 176.54 555.48 176.81C556.23 177.01 556.98 177.22 557.72 177.46C558.18 177.61 558.52 178.01 558.57 178.5L558.71 179.71C558.8 180.48 558.17 181.14 557.4 181.09L523.63 178.81C522.86 178.76 522.33 178.02 522.51 177.28L522.9 175.71C523.03 175.2 523.46 174.82 523.98 174.77Z" fill="#EB7950"/>
</g>
<defs>
<clipPath id="clip0_1_3">
<rect width="659.95" height="477.56" fill="white"/>
</clipPath>
</defs>
</svg>
